<svg width="227" height="227" viewBox="0 0 227 227" fill="none" xmlns="http://www.w3.org/2000/svg">
<path d="M113.069 220.667C172.145 220.667 220.035 193.017 220.035 158.909C220.035 124.801 172.145 97.1515 113.069 97.1515C53.9923 97.1515 6.10156 124.801 6.10156 158.909C6.10156 193.017 53.9923 220.667 113.069 220.667Z" fill="#F0F0F0"/>
<path d="M174.499 180.338C167.485 176.288 167.485 169.723 174.499 165.674C181.513 161.624 192.886 161.624 199.9 165.674C206.915 169.723 206.915 176.288 199.9 180.338C192.886 184.388 181.513 184.388 174.499 180.338Z" fill="#E0E0E0"/>
<path d="M31.8343 180.901L13.3837 170.25C12.3441 169.651 12.3441 168.675 13.3837 168.075L120.705 106.113C121.288 105.818 121.933 105.664 122.587 105.664C123.241 105.664 123.885 105.818 124.468 106.113L142.924 116.764C143.963 117.364 143.963 118.34 142.924 118.939L35.6025 180.901C35.0184 181.196 34.373 181.35 33.7184 181.35C33.0638 181.35 32.4184 181.196 31.8343 180.901Z" fill="#E0E0E0"/>
<path d="M98.1547 161.915L114.017 152.744C115.652 151.799 116.469 150.565 116.469 149.325C116.469 148.086 116.469 147.119 116.469 147.119L100.016 137.839C99.5565 137.542 99.1738 137.14 98.8992 136.667C98.6246 136.193 98.4659 135.661 98.4362 135.115V115.552L70.7422 131.56V151.114C70.7741 151.66 70.9337 152.191 71.2081 152.664C71.4825 153.137 71.864 153.539 72.3221 153.838L86.3235 161.901C89.5832 163.803 94.8859 163.803 98.1547 161.915Z" fill="#002F52"/>
<g opacity="0.6">
<path opacity="0.6" d="M98.1547 161.915L114.017 152.744C115.652 151.799 116.469 150.565 116.469 149.325C116.469 148.086 116.469 147.119 116.469 147.119L100.016 137.839C99.5565 137.542 99.1738 137.14 98.8992 136.667C98.6246 136.193 98.4659 135.661 98.4362 135.115V115.552L70.7422 131.56V151.114C70.7741 151.66 70.9337 152.191 71.2081 152.664C71.4825 153.137 71.864 153.539 72.3221 153.838L86.3235 161.901C89.5832 163.803 94.8859 163.803 98.1547 161.915Z" fill="black"/>
</g>
<path opacity="0.3" d="M77.3845 154.578V156.775L72.3088 153.847C71.8508 153.549 71.4695 153.146 71.1958 152.673C70.9222 152.2 70.7637 151.669 70.7334 151.123V131.56L76.0089 128.514C76.1178 129.853 76.2359 131.238 76.3494 132.6L72.6402 134.734V150.011C72.6696 150.557 72.8281 151.089 73.1027 151.563C73.3774 152.036 73.7603 152.438 74.2201 152.735L77.3845 154.578Z" fill="black"/>
<path d="M72.6401 150.015C72.6713 150.561 72.8306 151.093 73.1051 151.566C73.3795 152.039 73.7615 152.441 74.2201 152.739L86.3055 159.704C89.5743 161.588 94.8771 161.592 98.1504 159.704L114.04 150.533C117.314 148.644 117.314 145.584 114.04 143.696L101.946 136.731C101.488 136.432 101.107 136.03 100.834 135.557C100.56 135.084 100.401 134.553 100.37 134.007V118.726L72.6765 134.734L72.6401 150.015Z" fill="#002F52"/>
<path opacity="0.3" d="M72.6401 150.015C72.6713 150.561 72.8306 151.093 73.1051 151.566C73.3795 152.039 73.7615 152.441 74.2201 152.739L86.3055 159.704C89.5743 161.588 94.8771 161.592 98.1504 159.704L114.04 150.533C117.314 148.644 117.314 145.584 114.04 143.696L101.946 136.731C101.488 136.432 101.107 136.03 100.834 135.557C100.56 135.084 100.401 134.553 100.37 134.007V118.726L72.6765 134.734L72.6401 150.015Z" fill="black"/>
<path opacity="0.5" d="M105.146 138.597L101.928 136.74C101.47 136.441 101.089 136.039 100.816 135.566C100.542 135.093 100.383 134.562 100.352 134.016V118.726L72.6582 134.734V150.015C72.6894 150.561 72.8487 151.093 73.1231 151.566C73.3976 152.039 73.7796 152.441 74.2381 152.739L77.4161 154.555L105.146 138.597Z" fill="black"/>
<path d="M116.474 147.123V149.33C116.474 150.569 115.652 151.799 114.022 152.748L98.1323 161.915C96.3933 162.843 94.4511 163.325 92.48 163.317V161.12C94.4511 161.127 96.3933 160.645 98.1323 159.717L114.022 150.542C115.652 149.602 116.474 148.363 116.474 147.123Z" fill="#002F52"/>
<path opacity="0.5" d="M116.474 147.123V149.33C116.474 150.569 115.652 151.799 114.022 152.748L98.1323 161.915C96.3933 162.843 94.4511 163.325 92.48 163.317V161.12C94.4511 161.127 96.3933 160.645 98.1323 159.717L114.022 150.542C115.652 149.602 116.474 148.363 116.474 147.123Z" fill="black"/>
<path d="M28.148 169.006C28.7467 169.295 29.405 169.44 30.0698 169.428C30.7345 169.416 31.3872 169.248 31.9753 168.938L139.119 107.08C139.694 106.706 140.172 106.201 140.515 105.607C140.858 105.013 141.057 104.347 141.094 103.662V16.9842C141.074 16.3179 140.896 15.6659 140.576 15.0812C140.255 14.4966 139.801 13.996 139.251 13.6201C138.653 13.3306 137.995 13.1863 137.331 13.1989C136.667 13.2115 136.015 13.3807 135.428 13.6927L28.2842 75.5683C27.7117 75.9454 27.2365 76.4525 26.8972 77.0482C26.5579 77.6438 26.3643 78.3113 26.332 78.996V165.66C26.3523 166.321 26.5271 166.968 26.8425 167.549C27.1578 168.13 27.605 168.629 28.148 169.006Z" fill="#002F52"/>
<path d="M31.9891 168.934L139.133 107.076C139.708 106.702 140.187 106.197 140.53 105.603C140.873 105.009 141.071 104.343 141.108 103.657V16.9842C141.108 15.7267 140.223 15.2136 139.133 15.8447L31.9891 77.7022C31.4143 78.0766 30.9359 78.5813 30.5928 79.1753C30.2497 79.7693 30.0514 80.4358 30.0142 81.1208V167.794C30.0142 169.052 30.8995 169.565 31.9891 168.934Z" fill="#002F52"/>
<path opacity="0.5" d="M31.9891 168.934L139.133 107.076C139.708 106.702 140.187 106.197 140.53 105.603C140.873 105.009 141.071 104.343 141.108 103.657V16.9842C141.108 15.7267 140.223 15.2136 139.133 15.8447L31.9891 77.7022C31.4143 78.0766 30.9359 78.5813 30.5928 79.1753C30.2497 79.7693 30.0514 80.4358 30.0142 81.1208V167.794C30.0142 169.052 30.8995 169.565 31.9891 168.934Z" fill="black"/>
<path d="M31.6983 171.185C31.1365 171.431 30.5281 171.551 29.9152 171.539C29.3023 171.526 28.6994 171.381 28.148 171.113C27.6038 170.735 27.1559 170.234 26.8405 169.651C26.525 169.069 26.3509 168.42 26.332 167.758V159.867L30.0321 162.01V169.9C30.0094 171.049 30.7404 171.571 31.6983 171.185Z" fill="#002F52"/>
<path opacity="0.5" d="M31.6983 171.185C31.1365 171.431 30.5281 171.551 29.9152 171.539C29.3023 171.526 28.6994 171.381 28.148 171.113C27.6038 170.735 27.1559 170.234 26.8405 169.651C26.525 169.069 26.3509 168.42 26.332 167.758V159.867L30.0321 162.01V169.9C30.0094 171.049 30.7404 171.571 31.6983 171.185Z" fill="black"/>
<path d="M30.0093 162.01V169.9C30.0093 171.158 30.9173 171.667 31.9842 171.04L139.128 109.183C139.7 108.81 140.177 108.308 140.52 107.717C140.863 107.127 141.063 106.464 141.103 105.782V97.8552L30.0093 162.01Z" fill="#002F52"/>
<path opacity="0.3" d="M30.0142 161.992V169.9C30.0142 171.158 30.9222 171.667 31.9891 171.04L139.133 109.183C139.704 108.809 140.18 108.307 140.522 107.716C140.865 107.126 141.064 106.463 141.103 105.782V97.8552L30.0142 161.992Z" fill="black"/>
<path d="M33.7139 152.09V82.3511C33.735 81.9402 33.8529 81.5402 34.0581 81.1836C34.2632 80.8269 34.5497 80.5238 34.8943 80.299L136.2 21.792C136.854 21.4152 137.385 21.7194 137.385 22.473V92.2483C137.363 92.6595 137.244 93.0596 137.038 93.4162C136.832 93.7728 136.545 94.0758 136.2 94.3004L34.8988 152.794C34.245 153.171 33.7139 152.862 33.7139 152.09Z" fill="#002F52"/>
<path d="M33.7139 152.09V82.3511C33.735 81.9402 33.8529 81.5402 34.0581 81.1836C34.2632 80.8269 34.5497 80.5238 34.8943 80.299L136.2 21.792C136.854 21.4152 137.385 21.7194 137.385 22.473V92.2483C137.363 92.6595 137.244 93.0596 137.038 93.4162C136.832 93.7728 136.545 94.0758 136.2 94.3004L34.8988 152.794C34.245 153.171 33.7139 152.862 33.7139 152.09Z" fill="#263238"/>
<path d="M85.5564 132.445C85.0172 132.796 84.5683 133.269 84.2464 133.826C83.9246 134.383 83.7387 135.008 83.7041 135.651C83.7041 136.831 84.5349 137.312 85.5564 136.722C86.0963 136.371 86.5455 135.897 86.8674 135.339C87.1893 134.782 87.3748 134.156 87.4087 133.512C87.4087 132.332 86.5779 131.855 85.5564 132.445Z" fill="#002F52"/>
<path opacity="0.7" d="M30.5951 79.1686C30.2432 79.76 30.0421 80.4289 30.0094 81.1163V162.01L26.332 159.867V78.9961C26.3559 78.3064 26.5559 77.6343 26.9132 77.0439L30.5951 79.1686Z" fill="black"/>
<path opacity="0.3" d="M141.085 16.6573C140.944 15.6403 140.122 15.2953 139.128 15.8446L31.9842 77.7021C31.4032 78.0654 30.9237 78.5699 30.5904 79.1685L26.8857 77.0302C27.2213 76.4317 27.7022 75.9274 28.2841 75.5638L135.428 13.7108C136.015 13.3988 136.668 13.2296 137.333 13.2169C137.998 13.2043 138.657 13.3486 139.255 13.6382C139.759 13.9811 140.182 14.4281 140.498 14.949C140.814 15.4698 141.014 16.0524 141.085 16.6573Z" fill="black"/>
<path d="M146.865 27.3263C146.705 27.2464 146.527 27.2114 146.35 27.225C146.172 27.2386 146.002 27.3003 145.857 27.4035L44.76 85.8061C44.3611 86.0699 44.0299 86.424 43.7933 86.8397C43.5567 87.2554 43.4213 87.7209 43.398 88.1986V157.511C43.3838 157.745 43.4303 157.978 43.5329 158.189C43.6355 158.4 43.7908 158.581 43.9837 158.714C44.2061 158.837 45.3956 159.527 45.7497 159.717C45.875 159.781 46.015 159.811 46.1554 159.803C46.2958 159.795 46.4315 159.749 46.5488 159.672L147.623 101.269C148.022 101.005 148.353 100.651 148.589 100.236C148.826 99.82 148.961 99.3544 148.985 98.8767V29.2059C149.005 29.0298 148.976 28.8516 148.9 28.6912C148.825 28.5308 148.706 28.3946 148.558 28.2979C148.331 28.148 147.119 27.4761 146.865 27.3263Z" fill="#002F52"/>
<path d="M46.5261 86.7867L147.627 28.4068C148.39 27.9528 148.989 28.3251 148.989 29.2058V98.8767C148.966 99.3544 148.831 99.8199 148.594 100.236C148.357 100.651 148.026 101.005 147.627 101.269L46.5261 159.672C45.7633 160.126 45.1641 159.395 45.1641 158.514V89.1792C45.188 88.7017 45.3238 88.2364 45.5603 87.8208C45.7969 87.4053 46.1277 87.0511 46.5261 86.7867Z" fill="#FAFAFA"/>
<path d="M148.245 28.6702C148.513 28.6702 148.554 29.0061 148.554 29.2059V98.8767C148.529 99.2768 148.412 99.6656 148.211 100.012C148.01 100.359 147.731 100.654 147.396 100.874L46.3081 159.277C46.2403 159.321 46.1619 159.346 46.0811 159.35C45.8269 159.35 45.6271 158.959 45.6271 158.514V89.1793C45.6491 88.7794 45.7628 88.3899 45.9597 88.0411C46.1565 87.6923 46.4311 87.3936 46.7621 87.1681L147.854 28.7973C147.971 28.7218 148.106 28.678 148.245 28.6702ZM148.245 28.2162C148.026 28.2255 147.813 28.2912 147.627 28.4069L46.5261 86.7867C46.1277 87.0511 45.7969 87.4054 45.5603 87.8209C45.3238 88.2365 45.188 88.7017 45.1641 89.1793V158.514C45.1641 159.213 45.5545 159.804 46.0721 159.804C46.2324 159.8 46.389 159.755 46.5261 159.672L147.623 101.269C148.022 101.005 148.353 100.651 148.59 100.236C148.826 99.82 148.962 99.3545 148.985 98.8767V29.2059C148.985 28.5794 148.676 28.2162 148.222 28.2162H148.245Z" fill="#E0E0E0"/>
<path d="M43.9564 158.714C44.1062 158.791 45.1821 159.404 45.6543 159.676C45.4848 159.536 45.3505 159.357 45.2622 159.156C45.1739 158.954 45.1341 158.734 45.1458 158.514V93.7057L43.3752 92.6705V157.511C43.3606 157.744 43.4063 157.978 43.5081 158.189C43.6099 158.399 43.7643 158.58 43.9564 158.714Z" fill="#F0F0F0"/>
<path d="M149.007 29.1923C149.007 28.3206 148.386 27.9665 147.645 28.4068L46.5261 86.7867C46.1277 87.0511 45.7969 87.4053 45.5603 87.8209C45.3238 88.2364 45.188 88.7017 45.1641 89.1793V93.7193L149.007 33.7323V29.1923Z" fill="#002F52"/>
<g opacity="0.4">
<path opacity="0.4" d="M147.627 28.4068L46.5259 86.7821C46.1201 87.038 45.7859 87.3926 45.5543 87.8127L43.7974 86.7912C44.0285 86.3858 44.3599 86.0466 44.7598 85.806L145.857 27.4035C146.001 27.2996 146.172 27.2371 146.349 27.2227C146.527 27.2083 146.705 27.2425 146.864 27.3218C147.11 27.4761 148.258 28.1253 148.553 28.2842C148.401 28.2276 148.236 28.2092 148.075 28.2306C147.914 28.2519 147.76 28.3124 147.627 28.4068Z" fill="white"/>
</g>
<path opacity="0.15" d="M43.375 92.675V88.1759C43.3937 87.6856 43.5391 87.2085 43.7972 86.7912L45.5587 87.8082C45.3043 88.2182 45.1619 88.6879 45.1456 89.1702V93.7102L43.375 92.675Z" fill="black"/>
<path d="M127.687 81.4567L67.1374 116.415C66.843 116.606 66.5978 116.864 66.4219 117.167C66.2459 117.471 66.1442 117.812 66.125 118.163V135.524C66.1442 135.874 66.2459 136.215 66.4219 136.519C66.5978 136.823 66.843 137.08 67.1374 137.271L68.9035 138.288C69.2173 138.447 69.5642 138.53 69.9159 138.53C70.2676 138.53 70.6145 138.447 70.9283 138.288L131.469 103.33C131.764 103.138 132.009 102.88 132.185 102.575C132.361 102.271 132.462 101.929 132.482 101.578V84.2125C132.462 83.862 132.361 83.5211 132.185 83.2173C132.009 82.9136 131.764 82.6557 131.469 82.4646L129.699 81.4477C129.386 81.2915 129.041 81.2109 128.692 81.2125C128.343 81.2141 127.998 81.2977 127.687 81.4567Z" fill="#002F52"/>
<path opacity="0.5" d="M132.482 84.0581C132.409 83.536 131.987 83.3454 131.478 83.6405L70.9285 118.598C70.6299 118.784 70.3843 119.044 70.2157 119.352L66.4248 117.164C66.5947 116.86 66.8383 116.604 67.133 116.419L127.688 81.4613C128.001 81.3022 128.347 81.2192 128.698 81.2192C129.049 81.2192 129.395 81.3022 129.708 81.4613L131.478 82.4782C131.748 82.6551 131.978 82.8875 132.151 83.16C132.324 83.4324 132.436 83.7386 132.482 84.0581Z" fill="white"/>
<path d="M70.7558 138.375C70.4593 138.492 70.1416 138.545 69.8232 138.531C69.5049 138.516 69.193 138.436 68.908 138.293L67.1374 137.276C66.8435 137.084 66.5987 136.826 66.4228 136.523C66.247 136.219 66.1449 135.878 66.125 135.528V118.167C66.1386 117.813 66.2417 117.468 66.4246 117.164L70.2155 119.352C70.0313 119.652 69.9281 119.995 69.9159 120.346V137.712C69.9159 138.288 70.2791 138.556 70.7558 138.375Z" fill="#263238"/>
<path d="M70.9286 118.598L131.479 83.6405C132.037 83.3181 132.491 83.5769 132.491 84.2216V101.587C132.472 101.938 132.37 102.28 132.194 102.584C132.018 102.889 131.773 103.147 131.479 103.34L70.9377 138.298C70.3793 138.62 69.9253 138.357 69.9253 137.712V120.351C69.9435 120.001 70.0438 119.66 70.2181 119.355C70.3924 119.051 70.6358 118.792 70.9286 118.598Z" fill="#EB9B00"/>
<path d="M111.634 90.7274L67.1423 116.419C66.8475 116.604 66.604 116.86 66.4341 117.164L70.225 119.352C70.3936 119.044 70.6392 118.784 70.9378 118.598L115.43 92.9112L111.634 90.7274Z" fill="#455A64"/>
<path d="M115.42 92.9111L70.9284 118.598C70.6339 118.791 70.3887 119.049 70.2128 119.354C70.0369 119.658 69.9353 120 69.916 120.351V137.707C69.916 138.352 70.37 138.615 70.9284 138.293L115.42 112.606V92.9111Z" fill="#37474F"/>
<path d="M81.1891 116.483L104.148 103.231C105.097 102.681 105.869 103.072 105.869 104.102C105.826 104.681 105.648 105.242 105.348 105.739C105.048 106.236 104.635 106.655 104.143 106.962L81.1891 120.219C80.2402 120.769 79.4639 120.378 79.4639 119.348C79.5067 118.768 79.6851 118.207 79.9848 117.709C80.2845 117.212 80.697 116.792 81.1891 116.483Z" fill="#EB9B00"/>
<path d="M85.8922 120.873C85.8965 120.868 85.9017 120.864 85.9076 120.862C85.9135 120.859 85.9198 120.858 85.9263 120.858C85.9327 120.858 85.9391 120.859 85.9449 120.862C85.9508 120.864 85.9561 120.868 85.9603 120.873C85.9806 120.904 85.9902 120.941 85.9876 120.977V123.561C85.9879 123.81 85.9666 124.059 85.924 124.305C85.8865 124.53 85.8225 124.749 85.7333 124.959C85.6519 125.151 85.545 125.331 85.4155 125.495C85.2878 125.646 85.1341 125.774 84.9615 125.872C84.8264 125.96 84.6688 126.007 84.5075 126.008C84.4459 126.003 84.3859 125.985 84.3313 125.957C84.2766 125.928 84.2285 125.888 84.1897 125.84C84.0901 125.706 84.0246 125.55 83.999 125.386C83.9556 125.166 83.9358 124.942 83.94 124.718V122.131C83.9399 122.085 83.9491 122.04 83.9672 121.999C83.9784 121.962 84.0025 121.929 84.0353 121.908L84.3214 121.74C84.3306 121.732 84.3428 121.727 84.3554 121.727C84.3681 121.727 84.3802 121.732 84.3895 121.74C84.4105 121.771 84.4201 121.808 84.4167 121.845V124.396C84.4132 124.536 84.427 124.677 84.4576 124.814C84.4701 124.901 84.508 124.983 84.5665 125.05C84.587 125.074 84.6128 125.093 84.6419 125.106C84.6711 125.119 84.7028 125.124 84.7345 125.122C84.8122 125.117 84.8872 125.092 84.9524 125.05C85.0332 125.002 85.1066 124.942 85.1704 124.873C85.2412 124.791 85.2994 124.699 85.3429 124.6C85.3941 124.484 85.4322 124.362 85.4564 124.237C85.4829 124.087 85.495 123.935 85.4927 123.783V121.227C85.4941 121.182 85.5049 121.137 85.5245 121.096C85.5356 121.058 85.5598 121.026 85.5926 121.005L85.8922 120.873Z" fill="#FAFAFA"/>
<path d="M87.6718 123.316C87.6741 123.282 87.6662 123.249 87.6491 123.22C87.6383 123.208 87.6248 123.199 87.6098 123.194C87.5948 123.188 87.5787 123.186 87.5628 123.188C87.5071 123.181 87.4506 123.181 87.3948 123.188L87.1315 123.238C87.0466 123.259 86.9577 123.259 86.8727 123.238C86.8061 123.217 86.7485 123.174 86.7093 123.116C86.6649 123.042 86.6356 122.96 86.623 122.875C86.5787 122.632 86.5787 122.383 86.623 122.14C86.6571 122 86.7058 121.865 86.7683 121.736C86.8305 121.607 86.9066 121.485 86.9953 121.372C87.0812 121.265 87.1858 121.174 87.304 121.105C87.3995 121.046 87.5063 121.009 87.6173 120.996C87.6978 120.987 87.7789 121.005 87.8488 121.045C87.9154 121.086 87.9678 121.146 87.9987 121.218C88.0353 121.303 88.0553 121.394 88.0577 121.486C88.0624 121.532 88.0529 121.578 88.0304 121.618C88.0193 121.655 87.9952 121.687 87.9623 121.708L87.6899 121.867C87.6775 121.874 87.6634 121.878 87.6491 121.878C87.6347 121.878 87.6206 121.874 87.6082 121.867L87.5492 121.822C87.5257 121.803 87.4973 121.792 87.4675 121.79C87.4091 121.797 87.3531 121.817 87.304 121.849C87.2328 121.892 87.1697 121.947 87.1179 122.013C87.063 122.084 87.0341 122.172 87.0362 122.262C87.0298 122.297 87.0298 122.332 87.0362 122.367C87.0449 122.379 87.0563 122.39 87.0697 122.398C87.083 122.406 87.0979 122.411 87.1134 122.412C87.163 122.42 87.2136 122.42 87.2632 122.412L87.5174 122.367C87.7308 122.326 87.8761 122.367 87.9714 122.485C88.0716 122.653 88.1176 122.848 88.1031 123.043C88.1019 123.178 88.0836 123.312 88.0486 123.443C88.0127 123.584 87.9609 123.721 87.8942 123.851C87.8275 123.986 87.7436 124.111 87.6445 124.224C87.5505 124.334 87.4384 124.428 87.3131 124.5C87.2133 124.564 87.0997 124.603 86.9817 124.614C86.8963 124.617 86.8122 124.593 86.7411 124.546C86.671 124.498 86.6171 124.43 86.5867 124.351C86.55 124.265 86.5315 124.172 86.5322 124.078C86.528 124.031 86.5375 123.984 86.5595 123.942C86.5706 123.905 86.5948 123.872 86.6276 123.851L86.9 123.692C86.9363 123.692 86.9635 123.67 86.9817 123.692L87.0407 123.756C87.0528 123.769 87.0674 123.78 87.0838 123.788C87.1002 123.796 87.1179 123.8 87.1361 123.801C87.2 123.802 87.2622 123.781 87.3131 123.742C87.3951 123.696 87.4687 123.636 87.531 123.565C87.5619 123.528 87.5879 123.487 87.6082 123.443C87.6403 123.407 87.6622 123.363 87.6718 123.316Z" fill="#FAFAFA"/>
<path d="M88.5983 122.085C88.5975 121.849 88.6172 121.614 88.6573 121.381C88.6952 121.163 88.7545 120.948 88.8344 120.741C88.9011 120.556 88.9928 120.38 89.1068 120.219C89.2019 120.081 89.3258 119.965 89.47 119.879C89.5752 119.808 89.7036 119.78 89.8286 119.802C89.9396 119.827 90.0368 119.894 90.101 119.988C90.1865 120.111 90.2466 120.25 90.2781 120.396C90.3216 120.587 90.343 120.782 90.3417 120.977V121.259C90.3431 121.306 90.3321 121.353 90.3099 121.395C90.2987 121.433 90.2746 121.465 90.2418 121.486L89.0614 122.171C89.0586 122.251 89.0693 122.331 89.0932 122.408C89.1107 122.459 89.1421 122.504 89.184 122.539C89.2212 122.569 89.2682 122.583 89.3156 122.58C89.3705 122.574 89.4232 122.555 89.47 122.526C89.5387 122.488 89.6001 122.439 89.6516 122.38C89.698 122.328 89.7377 122.27 89.7696 122.208C89.789 122.172 89.8102 122.137 89.8332 122.103C89.8527 122.08 89.8756 122.06 89.9013 122.044L90.1828 121.881C90.1924 121.873 90.2044 121.869 90.2168 121.869C90.2292 121.869 90.2412 121.873 90.2509 121.881C90.2628 121.895 90.2714 121.912 90.2761 121.93C90.2808 121.948 90.2815 121.967 90.2781 121.985C90.2731 122.074 90.2548 122.161 90.2236 122.244C90.1844 122.37 90.1327 122.492 90.0693 122.607C89.9982 122.74 89.913 122.865 89.815 122.98C89.7173 123.097 89.6007 123.196 89.47 123.275C89.3627 123.345 89.2342 123.375 89.1068 123.361C88.9951 123.334 88.8978 123.266 88.8344 123.17C88.745 123.033 88.6847 122.878 88.6573 122.716C88.616 122.508 88.5963 122.297 88.5983 122.085ZM89.47 120.637C89.4002 120.675 89.3397 120.727 89.2929 120.791C89.2425 120.855 89.2013 120.925 89.1703 121C89.1385 121.075 89.1127 121.153 89.0932 121.232C89.0772 121.303 89.0666 121.376 89.0614 121.45L89.8604 120.996C89.8558 120.933 89.8467 120.871 89.8332 120.809C89.8262 120.755 89.8042 120.703 89.7696 120.66C89.756 120.64 89.7385 120.623 89.7182 120.611C89.6979 120.598 89.6752 120.59 89.6516 120.587C89.587 120.582 89.5226 120.599 89.47 120.637Z" fill="#FAFAFA"/>
<path d="M91.7673 119.37C91.6298 119.449 91.5214 119.57 91.4586 119.715C91.388 119.907 91.3556 120.11 91.3633 120.315V121.954C91.3639 122 91.3546 122.047 91.336 122.09C91.3249 122.127 91.3008 122.159 91.2679 122.181L91.0001 122.335C90.9958 122.34 90.9906 122.344 90.9847 122.346C90.9788 122.349 90.9725 122.35 90.966 122.35C90.9596 122.35 90.9532 122.349 90.9473 122.346C90.9415 122.344 90.9362 122.34 90.932 122.335C90.9117 122.304 90.9021 122.267 90.9047 122.23V119.293C90.905 119.246 90.9142 119.2 90.932 119.157C90.9447 119.12 90.9685 119.089 91.0001 119.066L91.2679 118.912C91.2772 118.903 91.2893 118.898 91.302 118.898C91.3146 118.898 91.3268 118.903 91.336 118.912C91.3571 118.941 91.3668 118.976 91.3633 119.012V119.157C91.4174 119.035 91.4843 118.919 91.563 118.812C91.6349 118.712 91.7279 118.63 91.8354 118.571L91.9989 118.476C92.0074 118.468 92.0188 118.463 92.0307 118.463C92.0425 118.463 92.054 118.468 92.0624 118.476C92.0844 118.506 92.0955 118.543 92.0942 118.58V118.993C92.0934 119.041 92.0826 119.087 92.0624 119.13C92.051 119.166 92.0288 119.197 91.9989 119.22L91.7673 119.37Z" fill="#FAFAFA"/>
<path d="M95.1538 119.152C95.1581 119.147 95.1633 119.144 95.1692 119.141C95.1751 119.138 95.1814 119.137 95.1879 119.137C95.1943 119.137 95.2007 119.138 95.2066 119.141C95.2124 119.144 95.2177 119.147 95.2219 119.152C95.2422 119.183 95.2518 119.22 95.2492 119.257V119.711C95.2489 119.757 95.2397 119.804 95.2219 119.847C95.2063 119.881 95.183 119.91 95.1538 119.933L93.6011 120.841C93.5919 120.85 93.5797 120.855 93.5671 120.855C93.5545 120.855 93.5423 120.85 93.5331 120.841C93.5127 120.812 93.5031 120.777 93.5058 120.741V116.655C93.506 116.609 93.5153 116.562 93.5331 116.519C93.5457 116.484 93.5697 116.453 93.6011 116.433L93.8872 116.265C93.8964 116.256 93.9086 116.251 93.9212 116.251C93.9339 116.251 93.946 116.256 93.9553 116.265C93.9756 116.294 93.9852 116.329 93.9825 116.365V119.82L95.1538 119.152Z" fill="#FAFAFA"/>
<path d="M96.5476 115.793C96.6498 115.722 96.7731 115.688 96.8971 115.697C97.0034 115.706 97.1025 115.755 97.1741 115.834C97.2587 115.931 97.3207 116.046 97.3557 116.17C97.4042 116.33 97.4316 116.497 97.4374 116.664C97.4374 116.701 97.4374 116.751 97.4374 116.81V117.159C97.4374 117.214 97.4374 117.264 97.4374 117.305C97.4284 117.502 97.4011 117.698 97.3557 117.89C97.3137 118.078 97.2528 118.26 97.1741 118.435C97.1021 118.598 97.009 118.751 96.8971 118.889C96.8014 119.015 96.6828 119.121 96.5476 119.202C96.4425 119.271 96.3186 119.304 96.1934 119.298C96.0886 119.289 95.9912 119.24 95.921 119.161C95.834 119.068 95.7716 118.954 95.7394 118.83C95.6909 118.669 95.6635 118.503 95.6577 118.335C95.6577 118.299 95.6577 118.253 95.6577 118.194V117.845C95.6577 117.786 95.6577 117.736 95.6577 117.7C95.663 117.501 95.6889 117.303 95.7349 117.109C95.7791 116.921 95.8414 116.737 95.921 116.56C95.9932 116.398 96.0846 116.246 96.1934 116.106C96.2897 115.979 96.41 115.873 96.5476 115.793ZM96.9743 116.964C96.9741 116.864 96.9572 116.764 96.9244 116.669C96.9075 116.611 96.8725 116.56 96.8245 116.524C96.7858 116.498 96.7391 116.486 96.6928 116.492C96.6409 116.502 96.5916 116.522 96.5476 116.551C96.4942 116.58 96.4453 116.617 96.4023 116.66C96.3502 116.714 96.3059 116.775 96.2706 116.842C96.225 116.924 96.1914 117.013 96.1707 117.105C96.1409 117.221 96.1227 117.339 96.1163 117.459C96.1163 117.495 96.1163 117.536 96.1163 117.586V117.908C96.1163 117.958 96.1163 117.999 96.1163 118.026C96.1205 118.127 96.1388 118.226 96.1707 118.322C96.1873 118.38 96.2224 118.431 96.2706 118.467C96.2895 118.48 96.3109 118.49 96.3336 118.494C96.3563 118.499 96.3796 118.499 96.4023 118.494C96.4537 118.485 96.5031 118.467 96.5476 118.44C96.6002 118.409 96.6489 118.373 96.6928 118.331C96.7435 118.275 96.7877 118.214 96.8245 118.149C96.8682 118.066 96.9017 117.977 96.9244 117.886C96.954 117.77 96.9708 117.651 96.9743 117.532C96.977 117.489 96.977 117.447 96.9743 117.404V117.087C96.9769 117.046 96.9769 117.005 96.9743 116.964Z" fill="#FAFAFA"/>
<path d="M98.8267 118.449C98.8848 118.413 98.9369 118.369 98.9811 118.317C99.0357 118.253 99.083 118.183 99.1218 118.108C99.1669 118.017 99.2019 117.921 99.2262 117.822C99.2541 117.711 99.2679 117.596 99.2671 117.482V117.25C99.2671 117.296 99.2217 117.35 99.1899 117.414C99.1588 117.48 99.1223 117.544 99.081 117.604C99.0335 117.668 98.982 117.729 98.9266 117.786C98.8696 117.846 98.8038 117.896 98.7314 117.936C98.6847 117.967 98.6321 117.99 98.5767 118C98.5213 118.011 98.4643 118.011 98.409 117.999C98.3081 117.968 98.2214 117.902 98.1639 117.813C98.0899 117.696 98.0361 117.567 98.005 117.432C97.9663 117.26 97.945 117.085 97.9414 116.91C97.9414 116.851 97.9414 116.778 97.9414 116.692C97.9414 116.605 97.9414 116.533 97.9414 116.469C97.9471 116.27 97.9683 116.071 98.005 115.874C98.0423 115.681 98.0954 115.491 98.1639 115.307C98.2281 115.147 98.3103 114.995 98.409 114.853C98.4927 114.728 98.6028 114.623 98.7314 114.544C98.7918 114.508 98.8577 114.482 98.9266 114.467C98.9776 114.458 99.0299 114.458 99.081 114.467C99.1212 114.478 99.1584 114.499 99.1899 114.526C99.2189 114.548 99.2449 114.574 99.2671 114.603V114.458C99.2673 114.411 99.2766 114.365 99.2943 114.322C99.307 114.286 99.3309 114.256 99.3624 114.236L99.6303 114.077C99.6395 114.068 99.6517 114.063 99.6643 114.063C99.677 114.063 99.6891 114.068 99.6984 114.077C99.7203 114.107 99.7315 114.144 99.7302 114.181V117.132C99.7424 117.574 99.6604 118.014 99.4895 118.421C99.3555 118.742 99.1235 119.012 98.8267 119.193C98.7255 119.256 98.6098 119.292 98.4908 119.298C98.3966 119.303 98.3029 119.28 98.2229 119.23C98.1461 119.172 98.0839 119.097 98.0413 119.012C97.997 118.908 97.9724 118.797 97.9686 118.685C97.9644 118.638 97.9739 118.59 97.9959 118.549C98.007 118.511 98.0312 118.479 98.064 118.458L98.3046 118.322C98.3101 118.316 98.3168 118.311 98.3242 118.308C98.3316 118.304 98.3396 118.303 98.3477 118.303C98.3558 118.303 98.3638 118.304 98.3713 118.308C98.3787 118.311 98.3853 118.316 98.3909 118.322C98.4132 118.345 98.433 118.371 98.4499 118.399C98.4775 118.447 98.5232 118.483 98.577 118.499C98.6315 118.539 98.7132 118.494 98.8267 118.449ZM98.4 116.247C98.4 116.368 98.4 116.486 98.4 116.601C98.387 116.782 98.4384 116.962 98.5452 117.109C98.5856 117.144 98.6372 117.163 98.6905 117.163C98.7438 117.163 98.7954 117.144 98.8358 117.109C98.9675 117.024 99.0704 116.9 99.1309 116.755C99.2136 116.566 99.2598 116.363 99.2671 116.156C99.2671 116.088 99.2671 116.006 99.2671 115.911C99.2671 115.815 99.2671 115.734 99.2671 115.675C99.2763 115.512 99.2281 115.351 99.1309 115.221C99.0907 115.184 99.038 115.163 98.9833 115.163C98.9287 115.163 98.876 115.184 98.8358 115.221C98.7066 115.306 98.6055 115.428 98.5452 115.57C98.452 115.784 98.4026 116.014 98.4 116.247Z" fill="#FAFAFA"/>
<path d="M100.788 112.215C100.797 112.208 100.808 112.204 100.82 112.204C100.831 112.204 100.843 112.208 100.852 112.215C100.875 112.245 100.887 112.282 100.883 112.32V112.814C100.884 112.862 100.873 112.908 100.852 112.951C100.839 112.985 100.817 113.015 100.788 113.037L100.484 113.214C100.48 113.219 100.474 113.223 100.468 113.225C100.463 113.228 100.456 113.229 100.45 113.229C100.443 113.229 100.437 113.228 100.431 113.225C100.425 113.223 100.42 113.219 100.416 113.214C100.404 113.2 100.395 113.185 100.389 113.167C100.384 113.15 100.382 113.132 100.384 113.114V112.619C100.384 112.572 100.395 112.525 100.416 112.483C100.428 112.448 100.452 112.417 100.484 112.397L100.788 112.215ZM100.865 116.478C100.865 116.524 100.856 116.568 100.838 116.61C100.824 116.646 100.8 116.677 100.77 116.701L100.497 116.855C100.494 116.86 100.489 116.864 100.483 116.866C100.478 116.869 100.472 116.87 100.466 116.87C100.46 116.87 100.454 116.869 100.448 116.866C100.443 116.864 100.438 116.86 100.434 116.855C100.41 116.826 100.399 116.788 100.402 116.751V113.813C100.402 113.766 100.413 113.719 100.434 113.677C100.447 113.642 100.469 113.61 100.497 113.586L100.77 113.432C100.779 113.423 100.791 113.419 100.804 113.419C100.817 113.419 100.829 113.423 100.838 113.432C100.858 113.461 100.868 113.496 100.865 113.532V116.478Z" fill="#FAFAFA"/>
<path d="M103.253 115.094C103.253 115.14 103.244 115.187 103.226 115.23C103.213 115.265 103.19 115.295 103.158 115.316L102.886 115.475C102.877 115.483 102.866 115.488 102.854 115.488C102.842 115.488 102.831 115.483 102.822 115.475C102.798 115.446 102.787 115.408 102.79 115.371V113.772C102.804 113.584 102.77 113.395 102.69 113.223C102.627 113.11 102.527 113.091 102.386 113.173C102.246 113.267 102.142 113.407 102.091 113.568C102.015 113.782 101.978 114.008 101.982 114.236V115.838C101.982 115.885 101.973 115.931 101.955 115.974C101.944 116.012 101.92 116.044 101.887 116.065L101.619 116.22C101.615 116.224 101.609 116.228 101.604 116.231C101.598 116.234 101.591 116.235 101.585 116.235C101.579 116.235 101.572 116.234 101.566 116.231C101.56 116.228 101.555 116.224 101.551 116.22C101.53 116.191 101.52 116.155 101.524 116.12V113.182C101.523 113.135 101.532 113.089 101.551 113.046C101.562 113.009 101.586 112.976 101.619 112.955L101.887 112.801C101.891 112.796 101.896 112.792 101.902 112.79C101.908 112.787 101.914 112.786 101.921 112.786C101.927 112.786 101.934 112.787 101.94 112.79C101.945 112.792 101.951 112.796 101.955 112.801C101.975 112.832 101.985 112.868 101.982 112.905V113.046C102.042 112.908 102.115 112.775 102.2 112.651C102.275 112.536 102.376 112.441 102.495 112.374C102.599 112.299 102.727 112.266 102.854 112.283C102.904 112.296 102.951 112.319 102.992 112.351C103.032 112.383 103.066 112.424 103.09 112.469C103.156 112.592 103.199 112.726 103.217 112.864C103.241 113.045 103.253 113.227 103.253 113.409V115.094Z" fill="#FAFAFA"/>
<path d="M126.153 101.878L121.745 104.42L122.43 98.2365C121.899 97.9551 121.563 97.2695 121.563 96.2843C121.563 94.5274 122.634 92.4889 123.951 91.7443C125.268 90.9998 126.335 91.7897 126.335 93.5603C126.307 94.6021 126.01 95.6189 125.472 96.5113L126.153 101.878Z" fill="#455A64"/>
<path d="M126.157 101.878L122.276 99.6394L121.745 104.425L126.157 101.878Z" fill="#37474F"/>
<path d="M123.942 91.7307C122.982 92.3794 122.266 93.3301 121.908 94.432L125.463 96.4841C126.001 95.5917 126.298 94.5749 126.326 93.5331C126.335 91.7761 125.268 90.9726 123.942 91.7307Z" fill="#37474F"/>
<path d="M102.513 71.1418C101.001 70.2701 98.9176 70.3927 96.6113 71.7229C92.0078 74.3834 88.2759 80.8438 88.2759 86.1601C88.2759 88.8296 89.2202 90.7001 90.7366 91.5627L93.6739 93.2698C95.1812 94.1415 97.2651 94.0143 99.5759 92.6841C104.179 90.0282 107.911 83.5632 107.911 78.2469C107.911 75.591 106.976 73.7069 105.469 72.8579" fill="#002F52"/>
<path d="M99.5713 73.4346C94.9677 76.095 91.2358 82.56 91.2358 87.8718C91.2358 93.1836 94.9677 95.3446 99.5713 92.6842C104.175 90.0237 107.911 83.5633 107.907 78.247C107.902 72.9306 104.17 70.7787 99.5713 73.4346Z" fill="#002F52"/>
<path d="M104.17 85.2295V85.8378C103.068 87.8064 101.486 89.4648 99.5713 90.6593C97.778 91.6899 96.1573 91.8034 94.9678 91.1451V89.892C95.0287 88.5884 95.4009 87.3183 96.0533 86.188C96.7057 85.0577 97.6194 84.1001 98.7178 83.3953L99.93 82.6961C101.001 82.0787 102.046 81.997 102.863 82.4737C103.68 82.9504 104.17 83.9537 104.17 85.2295Z" fill="#002F52"/>
<path opacity="0.4" d="M102.513 71.1419L105.464 72.858C103.957 71.9818 101.873 72.1044 99.5621 73.4346C96.5475 75.1779 93.9052 78.5511 92.4433 82.165L89.4878 80.4534C90.9542 76.8214 93.5738 73.4663 96.6065 71.723C98.9219 70.3973 101.006 70.2702 102.513 71.1419Z" fill="white"/>
<path opacity="0.2" d="M93.5694 93.2017L90.741 91.5627C89.2246 90.7001 88.2803 88.8388 88.2803 86.1602L91.2358 87.8763C91.254 90.4641 92.1257 92.3073 93.5694 93.2017Z" fill="black"/>
<path opacity="0.1" d="M89.4969 80.4534L92.4524 82.1649C91.6951 83.9741 91.2884 85.9107 91.2539 87.8717L88.2983 86.1556C88.3348 84.1963 88.7414 82.2615 89.4969 80.4534Z" fill="black"/>
<path d="M98.5179 82.4101C98.2362 82.4132 97.9588 82.3411 97.7143 82.2013C97.4195 82.0048 97.1834 81.7323 97.0307 81.4127C96.8781 81.093 96.8147 80.738 96.8472 80.3853C96.8857 79.5581 97.1218 78.7522 97.5357 78.035C97.9495 77.3178 98.5292 76.7102 99.2261 76.263C99.5061 76.0395 99.8469 75.9057 100.204 75.8791C100.561 75.8524 100.918 75.9342 101.228 76.1138C101.538 76.2933 101.787 76.5622 101.942 76.8852C102.096 77.2083 102.15 77.5706 102.095 77.9246C102.056 78.7516 101.82 79.5572 101.406 80.2743C100.992 80.9914 100.413 81.5992 99.7164 82.0469C99.3561 82.2719 98.9425 82.3972 98.5179 82.4101Z" fill="white"/>
<path d="M102.863 82.4692C102.046 81.9925 101.001 82.0742 99.93 82.6916L98.7178 83.3908C97.6188 84.096 96.7048 85.0543 96.0523 86.1855C95.3998 87.3166 95.0279 88.5876 94.9678 89.8921V91.1496C96.1573 91.8079 97.778 91.6944 99.5713 90.6639C101.486 89.4693 103.068 87.811 104.17 85.8424V85.234C104.17 83.9537 103.698 82.9504 102.863 82.4692Z" fill="white"/>
<path d="M171.212 36.32L172.656 36.8739V33.6959C172.656 31.1717 174.667 30.5678 176.851 31.83C179.039 33.0921 180.81 36.1566 180.81 38.6808V39.1348C181.114 39.0418 181.436 39.0188 181.75 39.0676C182.065 39.1163 182.364 39.2355 182.626 39.4163C183.455 39.957 184.145 40.6857 184.64 41.5432C185.134 42.4007 185.42 43.3628 185.472 44.3513V44.5601L187.488 45.7223C188.034 46.0783 188.487 46.5577 188.813 47.1216C189.139 47.6855 189.327 48.3182 189.363 48.9684C189.363 50.167 188.523 50.6528 187.488 50.0535L171.212 40.6512C170.667 40.296 170.213 39.8168 169.887 39.2526C169.562 38.6884 169.375 38.0553 169.342 37.4051C169.342 36.2111 170.173 35.7253 171.212 36.32Z" fill="#E6E6E6"/>
<path d="M190.548 33.8049L193.168 35.3167C193.153 35.2022 193.146 35.087 193.145 34.9716V34.2135C193.145 32.8515 194.089 32.3157 195.26 32.9922C195.764 33.3004 196.194 33.7139 196.523 34.2044C196.713 32.5064 198.048 31.8754 199.664 32.8061C200.588 33.407 201.357 34.2172 201.909 35.1708C202.461 36.1244 202.781 37.1947 202.842 38.2949V39.4299C202.854 39.8834 202.762 40.3336 202.574 40.7465L204.754 41.9996C205.093 42.2248 205.375 42.5266 205.577 42.8806C205.779 43.2346 205.895 43.631 205.916 44.038C205.916 44.7871 205.389 45.0913 204.74 44.719L190.548 36.547C190.205 36.3234 189.919 36.0217 189.715 35.6666C189.51 35.3116 189.393 34.9132 189.372 34.504C189.372 33.7368 189.899 33.4326 190.548 33.8049Z" fill="#E6E6E6"/>
<path d="M180.406 102.708C178.499 105.932 176.665 108.733 175.375 110.077C172.928 111.212 167.181 112.964 164.933 113.255C164.539 113.305 164.139 113.212 163.808 112.991C162.922 112.41 162.237 112.315 161.306 111.993C160.575 111.743 160.266 111.393 160.13 111.539C159.989 111.704 159.919 111.917 159.933 112.133C159.948 112.35 160.046 112.552 160.207 112.696C160.557 113.028 160.944 113.318 161.36 113.559C160.364 113.806 159.324 113.825 158.319 113.613C156.371 113.1 155.454 114.036 156.771 116.151C157.225 116.905 159.095 118.117 162.854 117.79C164.195 117.718 165.531 117.566 166.854 117.336C170.459 116.564 174.467 115.82 176.933 115.066C177.85 114.706 178.67 114.137 179.33 113.405C183.475 108.678 184.85 105.31 186.666 102.25L186.512 97.2558C183.57 97.156 181.999 100.012 180.406 102.708Z" fill="#FFA8A7"/>
<path d="M187.016 97.156C186.163 97.0361 185.293 97.1516 184.501 97.4901C183.709 97.8285 183.024 98.3771 182.521 99.0764C180.505 101.66 176.937 107.861 176.937 107.861C176.937 107.861 178.104 110.971 181.255 111.493L186.317 104.656C186.317 104.656 188.714 99.9072 187.016 97.156Z" fill="#455A64"/>
<path d="M197.962 166.863H194.661V172.747H197.962V166.863Z" fill="#FFA8A7"/>
<path d="M186.521 166.55L183.225 166.668L183.057 160.439L186.521 160.321V166.55Z" fill="#FFA8A7"/>
<path d="M198.425 115.929C198.425 119.207 197.944 145.616 197.944 145.616C198.016 146.56 198.852 148.304 198.684 151.931C198.434 156.857 198.103 169.805 198.103 169.805C197.536 170.095 196.911 170.252 196.274 170.265C195.638 170.277 195.007 170.145 194.43 169.878C194.43 169.878 191.751 151.718 191.161 146.855C190.643 142.592 189.318 128.482 189.318 128.482L187.533 145.162C187.912 146.952 188.049 148.784 187.942 150.61C187.788 152.88 186.725 164.629 186.725 164.629C186.155 164.966 185.516 165.168 184.856 165.221C184.196 165.273 183.533 165.175 182.916 164.934C182.916 164.934 181.037 147.228 181 145.148C180.955 142.788 182.099 115.902 182.099 115.902L198.425 115.929Z" fill="#37474F"/>
<path d="M194.661 171.049V170.559C194.344 170.699 193.613 173.614 192.301 174.858C191.261 175.848 189.845 176.987 189.481 178.091C189.118 179.194 191.456 179.87 192.432 179.693C193.558 179.484 195.52 178.654 196.01 177.877C196.5 177.101 196.732 175.975 197.131 175.412C197.531 174.849 198.452 174.222 198.666 173.569C198.732 172.957 198.669 172.338 198.48 171.753C198.325 171.144 198.162 170.477 197.962 170.536V170.908C197.497 171.29 196.911 171.496 196.309 171.489C195.828 171.53 194.657 171.43 194.661 171.049Z" fill="#263238"/>
<path d="M183.189 165.606C183.016 165.606 182.875 165.864 182.499 166.291C181.938 166.88 181.283 167.372 180.56 167.744C179.325 168.389 176.928 169.378 175.834 169.891C175.153 170.209 175.185 171.063 175.888 171.548C176.592 172.034 178.285 172.384 180.319 171.912C181.427 171.653 182.871 170.586 183.788 170.645C184.705 170.704 186.408 170.686 187.084 170.191C187.76 169.696 187.488 168.67 187.297 167.785C187.089 166.813 186.843 165.301 186.521 165.369V165.71C186.126 166.336 184.079 166.591 183.207 166.132L183.189 165.606Z" fill="#263238"/>
<path d="M189.318 128.482C187.601 127.92 186.031 126.982 184.723 125.735C184.723 125.735 185.631 127.465 188.246 129.077L187.683 143.972L189.318 128.482Z" fill="#263238"/>
<path d="M196.582 97.6372C196.582 97.6372 199.306 98.2638 199.11 103.185L198.543 111.017V122.775C196.118 125.526 185.377 125.327 181.677 122.557C181.677 122.557 182.094 108.642 182.344 103.285C182.521 99.4805 183.397 97.5646 187.138 97.1469L191.737 97.3467L196.582 97.6372Z" fill="#002F52"/>
<path d="M193.113 87.4131C193.129 88.072 193.014 88.7275 192.775 89.3417C192.537 89.956 192.178 90.5169 191.722 90.9921C191.265 91.4673 190.719 91.8474 190.115 92.1105C189.51 92.3737 188.86 92.5146 188.201 92.5252C185.477 92.5252 183.879 90.1735 183.289 87.4131C182.199 82.3601 185.486 82.2966 188.201 82.2966C189.531 82.324 190.795 82.8784 191.717 83.8378C192.638 84.7973 193.14 86.0833 193.113 87.4131Z" fill="#263238"/>
<path d="M195.619 89.4789C195.619 89.4789 194.865 93.1654 194.561 93.7737C194.37 94.1399 194.045 94.418 193.653 94.5501L193.708 91.9577L195.619 89.4789Z" fill="#263238"/>
<path d="M194.67 84.1988C194.67 84.1988 195.211 84.0626 195.787 84.9616C196.278 85.7288 196.391 87.454 195.619 89.5016L194.198 89.6741L194.67 84.1988Z" fill="#263238"/>
<path d="M195.192 84.9479L196.936 84.9797C196.948 84.867 196.936 84.7531 196.902 84.6451C196.868 84.5371 196.812 84.4373 196.737 84.352C196.662 84.2668 196.571 84.1978 196.468 84.1496C196.366 84.1014 196.255 84.0748 196.141 84.0717C195.903 84.0751 195.674 84.1665 195.499 84.3282C195.324 84.4899 195.215 84.7106 195.192 84.9479Z" fill="#263238"/>
<path d="M195.406 84.5348L196.695 83.2954C196.621 83.2078 196.529 83.1366 196.426 83.0862C196.323 83.0358 196.21 83.0073 196.095 83.0026C195.981 82.998 195.866 83.0171 195.759 83.0589C195.652 83.1007 195.555 83.1642 195.474 83.2454C195.303 83.4127 195.201 83.638 195.188 83.8768C195.176 84.1157 195.253 84.3505 195.406 84.5348Z" fill="#263238"/>
<path d="M193.771 89.6514C194.058 89.8284 194.462 89.2609 194.816 88.875C195.17 88.4891 196.268 88.135 196.841 89.388C197.413 90.6411 196.436 91.8805 195.619 92.2891C194.153 93.0155 193.69 91.9577 193.69 91.9577L193.567 97.7961C191.506 100.974 186.83 100.874 188.514 97.6418V95.8666C187.821 95.9818 187.118 96.0184 186.417 95.9756C185.273 95.794 184.555 94.8542 184.206 93.5648C183.652 91.4946 183.438 89.8239 183.911 85.7515C184.428 81.2932 189.413 81.2433 192.083 83.0275C194.752 84.8117 193.771 89.6514 193.771 89.6514Z" fill="#FFA8A7"/>
<path d="M187.561 85.0569C188.75 84.9389 189.926 84.6937 191.12 84.6029C191.378 84.5717 191.639 84.584 191.892 84.6392C192.8 84.8889 192.691 85.9513 192.836 86.6913C193.086 87.9716 193.29 90.1372 193.772 90.1462C193.917 90.1462 194.462 89.2065 194.816 88.8705C195.01 88.581 195.121 88.243 195.134 87.8944C195.224 87.3678 195.27 86.8275 195.311 86.2918C195.347 85.8378 195.392 85.3838 195.392 84.9298C195.413 84.4167 195.372 83.903 195.27 83.3998C195.156 82.9717 194.938 82.5785 194.634 82.2557L194.543 82.1558C193.945 81.5302 193.219 81.0409 192.414 80.7212C191.257 80.2875 190.042 80.023 188.809 79.9358C187.578 79.8486 186.352 79.697 185.137 79.4818C185.067 79.4615 184.993 79.4615 184.923 79.4818C184.874 79.5091 184.832 79.5483 184.802 79.5959C184.772 79.6435 184.754 79.6979 184.751 79.7542C184.701 80.0363 184.732 80.3268 184.84 80.5919C184.949 80.8571 185.13 81.0861 185.364 81.2524C184.542 81.3159 183.597 80.8892 182.808 80.6713C182.744 80.6442 182.675 80.6302 182.605 80.6302C182.536 80.6302 182.467 80.6442 182.403 80.6713C182.324 80.7267 182.268 80.8089 182.245 80.9028C182.187 81.1161 182.179 81.3398 182.222 81.5566C182.294 82.2136 182.538 82.84 182.93 83.3726C183.542 84.1692 184.406 84.7343 185.382 84.9752C186.1 85.1136 186.835 85.1412 187.561 85.0569Z" fill="#263238"/>
<path d="M188.519 95.8666C188.519 95.8666 191.07 95.3309 191.96 94.836C192.49 94.546 192.92 94.103 193.195 93.5648C193.061 94.1056 192.822 94.6146 192.491 95.063C191.842 95.9347 188.519 96.5703 188.519 96.5703V95.8666Z" fill="#F28F8F"/>
<path d="M189.132 88.984C189.127 89.1241 189.177 89.2605 189.273 89.3634C189.368 89.4664 189.5 89.5274 189.64 89.5333C189.751 89.5425 189.863 89.5178 189.96 89.4626C190.057 89.4073 190.135 89.3241 190.184 89.2237C190.232 89.1234 190.25 89.0106 190.233 88.9002C190.217 88.7899 190.168 88.687 190.092 88.6051C190.016 88.5232 189.917 88.4661 189.809 88.4413C189.7 88.4165 189.586 88.4251 189.482 88.4661C189.378 88.507 189.289 88.5784 189.227 88.6708C189.164 88.7632 189.131 88.8724 189.132 88.984Z" fill="#263238"/>
<path d="M189.949 86.7821L191.043 87.4131C191.122 87.2576 191.141 87.0777 191.093 86.9094C191.046 86.7411 190.937 86.5967 190.789 86.5051C190.716 86.4644 190.636 86.4393 190.553 86.4313C190.47 86.4232 190.387 86.4326 190.308 86.4586C190.229 86.4847 190.156 86.5269 190.094 86.5826C190.032 86.6383 189.983 86.7062 189.949 86.7821Z" fill="#263238"/>
<path d="M188.746 92.6659L187.579 93.1199C187.603 93.1999 187.642 93.2743 187.696 93.3383C187.749 93.4024 187.815 93.4548 187.89 93.4922C187.964 93.5297 188.045 93.5514 188.129 93.5561C188.212 93.5608 188.295 93.5483 188.374 93.5194C188.532 93.451 188.659 93.3247 188.728 93.1662C188.798 93.0077 188.804 92.8288 188.746 92.6659Z" fill="#F28F8F"/>
<path d="M184.437 87.2497L185.436 86.4507C185.391 86.3809 185.332 86.3214 185.263 86.2759C185.194 86.2305 185.116 86.2001 185.034 86.1868C184.952 86.1735 184.868 86.1776 184.788 86.1988C184.708 86.2201 184.633 86.2579 184.569 86.3099C184.435 86.4231 184.348 86.5814 184.324 86.7547C184.3 86.928 184.34 87.1042 184.437 87.2497Z" fill="#263238"/>
<path d="M184.877 88.8342C184.885 88.9335 184.922 89.0284 184.983 89.1072C185.044 89.186 185.127 89.2454 185.221 89.278C185.315 89.3107 185.417 89.3152 185.513 89.291C185.61 89.2668 185.698 89.215 185.765 89.1419C185.833 89.0688 185.878 88.9775 185.895 88.8793C185.911 88.781 185.899 88.6801 185.859 88.5887C185.82 88.4973 185.754 88.4195 185.671 88.3647C185.588 88.3099 185.49 88.2806 185.39 88.2803C185.32 88.2826 185.251 88.2988 185.187 88.328C185.124 88.3572 185.066 88.3987 185.018 88.4502C184.971 88.5017 184.934 88.5622 184.91 88.6281C184.885 88.694 184.874 88.764 184.877 88.8342Z" fill="#263238"/>
<path d="M187.615 88.4074L187.556 91.6354L185.722 91.2177L187.615 88.4074Z" fill="#F28F8F"/>
<path d="M144.059 115.443L146.905 113.8L148.031 112.433L145.189 114.077L144.059 115.443Z" fill="#002F52"/>
<path opacity="0.4" d="M144.059 115.443L146.905 113.8L148.031 112.433L145.189 114.077L144.059 115.443Z" fill="black"/>
<path d="M151.799 119.91L154.646 118.267L157.02 116.165L154.178 117.804L151.799 119.91Z" fill="#002F52"/>
<path opacity="0.4" d="M151.799 119.91L154.646 118.267L157.02 116.165L154.178 117.804L151.799 119.91Z" fill="black"/>
<path d="M175.979 125.581C176.652 126.483 177.059 127.556 177.155 128.677C176.485 127.773 176.078 126.702 175.979 125.581ZM182.594 125.667C181.636 119.152 178.136 112.71 173.968 110.299C171.966 109.142 170.113 109.101 168.629 109.968L165.95 111.511L165.8 111.602C165.681 111.668 165.566 111.741 165.455 111.82C165.235 111.972 165.029 112.142 164.838 112.329L164.747 112.415C164.665 112.497 164.579 112.592 164.502 112.683C164.425 112.774 164.307 112.914 164.216 113.037C164.023 113.291 163.849 113.558 163.694 113.836C163.612 113.977 163.535 114.126 163.462 114.29L140.068 100.788L137.226 102.427V104.243L137.466 104.379L137.693 104.511V104.874L137.239 105.142V106.195L140.676 113.459L144.072 115.425L145.202 114.063L148.199 115.856L149.919 118.803L151.817 119.897L154.192 117.79L157.106 119.475L158.087 123.52L162.986 126.353C163.228 127.382 163.531 128.396 163.894 129.39C163.925 129.49 163.966 129.594 164.007 129.708C165.632 133.975 168.216 137.63 171.13 139.314C171.48 139.522 171.846 139.699 172.224 139.846C172.425 139.925 172.629 139.993 172.837 140.05C173.019 140.098 173.201 140.139 173.382 140.172C173.956 140.277 174.543 140.277 175.116 140.172L175.353 140.113C175.465 140.091 175.576 140.059 175.684 140.018L175.938 139.918C176.028 139.886 176.115 139.845 176.197 139.796C176.281 139.759 176.363 139.718 176.442 139.673L176.56 139.6C176.582 139.593 176.602 139.583 176.619 139.569C177.268 139.196 178.866 138.27 179.302 138.025C181.463 136.772 182.862 133.603 182.862 129.122C182.858 127.965 182.768 126.811 182.594 125.667Z" fill="#002F52"/>
<path d="M175.148 131.079C174.022 130.43 173.114 128.505 173.114 126.78C173.114 125.054 174.022 124.178 175.148 124.823C176.274 125.467 177.178 127.397 177.178 129.127C177.178 130.856 176.27 131.728 175.148 131.079ZM179.747 127.306C178.794 120.796 175.294 114.349 171.121 111.943C169.187 110.826 167.399 110.744 165.946 111.511L165.796 111.602C165.677 111.668 165.561 111.741 165.451 111.82C165.231 111.972 165.024 112.142 164.833 112.329L164.743 112.415C164.661 112.497 164.575 112.592 164.498 112.683C164.42 112.774 164.302 112.914 164.212 113.037C164.019 113.291 163.844 113.558 163.689 113.836C163.608 113.977 163.531 114.127 163.458 114.29C163.035 115.168 162.729 116.097 162.55 117.055L137.221 102.427V104.243L137.462 104.379L137.689 104.511V104.874L137.235 105.142V106.195L140.672 113.459L144.068 115.425L145.198 114.063L148.194 115.856L149.915 118.803L151.813 119.897L154.187 117.79L157.102 119.475L158.083 123.52L162.986 126.353C163.228 127.382 163.531 128.397 163.894 129.39C163.925 129.49 163.966 129.594 164.007 129.708C165.633 133.975 168.216 137.63 171.13 139.314C171.48 139.522 171.846 139.699 172.225 139.846C172.425 139.925 172.63 139.993 172.838 140.05C173.019 140.098 173.201 140.139 173.382 140.173C173.956 140.277 174.543 140.277 175.117 140.173L175.353 140.113C175.466 140.091 175.576 140.059 175.684 140.018L175.938 139.918C176.028 139.886 176.115 139.845 176.197 139.796C176.281 139.759 176.363 139.718 176.442 139.673L176.56 139.6C176.582 139.593 176.602 139.583 176.619 139.569C178.69 138.261 180.02 135.138 180.02 130.766C180.012 129.607 179.921 128.451 179.747 127.306Z" fill="#002F52"/>
<path opacity="0.4" d="M177.178 129.122C177.178 130.852 176.27 131.728 175.149 131.079C174.027 130.43 173.115 128.509 173.115 126.779C173.115 125.05 174.023 124.174 175.149 124.823C175.473 125.02 175.755 125.279 175.979 125.585C176.077 126.707 176.484 127.778 177.155 128.682C177.172 128.828 177.18 128.975 177.178 129.122Z" fill="black"/>
<path opacity="0.4" d="M182.853 129.118C182.853 133.599 181.454 136.767 179.293 138.021C178.839 138.266 177.259 139.192 176.61 139.564C178.681 138.257 180.011 135.133 180.011 130.761C180.006 129.605 179.918 128.45 179.747 127.306C178.794 120.796 175.294 114.349 171.121 111.943C169.187 110.826 167.399 110.744 165.946 111.511L168.624 109.968C170.109 109.101 171.961 109.142 173.963 110.299C178.136 112.71 181.636 119.152 182.589 125.667C182.762 126.809 182.85 127.962 182.853 129.118Z" fill="white"/>
<path d="M180.011 130.752C180.011 135.124 178.681 138.248 176.61 139.555C177.26 139.183 178.858 138.257 179.293 138.011C181.455 136.758 182.853 133.59 182.853 129.109C182.853 128.945 182.853 128.777 182.853 128.609L180.011 130.253C180.006 130.43 180.011 130.593 180.011 130.752Z" fill="#002F52"/>
<path opacity="0.1" d="M180.011 130.752C180.011 135.124 178.681 138.248 176.61 139.555C177.26 139.183 178.858 138.257 179.293 138.011C181.455 136.758 182.853 133.59 182.853 129.109C182.853 128.945 182.853 128.777 182.853 128.609L180.011 130.253C180.006 130.43 180.011 130.593 180.011 130.752Z" fill="black"/>
<path opacity="0.15" d="M162.659 118.912V119.833L137.226 105.151L137.693 104.879V104.497L162.659 118.912Z" fill="black"/>
<path opacity="0.15" d="M162.659 119.293V119.833L137.226 105.151L137.693 104.879V104.874L162.659 119.293Z" fill="black"/>
<path opacity="0.15" d="M173.718 138.016C172.754 137.991 171.814 137.711 170.994 137.203C166.849 134.811 163.476 127.692 163.476 121.336C163.476 117.627 164.597 114.857 166.554 113.727C167.916 112.937 169.528 113.037 171.221 114.013C175.362 116.406 178.735 123.547 178.735 129.903C178.735 133.608 177.614 136.382 175.657 137.508C175.067 137.845 174.398 138.02 173.718 138.016ZM168.52 113.659C167.915 113.656 167.32 113.812 166.795 114.113C165.011 115.143 163.944 117.845 163.944 121.331C163.944 127.542 167.213 134.497 171.235 136.804C172.774 137.712 174.231 137.794 175.444 137.094C177.228 136.064 178.295 133.367 178.295 129.88C178.295 123.665 175.026 116.714 171.008 114.403C170.257 113.947 169.399 113.696 168.52 113.677V113.659Z" fill="black"/>
<path opacity="0.4" d="M163.44 114.281C163.017 115.158 162.711 116.088 162.532 117.046L137.203 102.418L140.045 100.779L163.44 114.281Z" fill="white"/>
<path d="M196.36 115.702C197.685 113.191 199.202 107.553 199.955 104.706C201.027 100.665 199.292 98.123 197.322 98.0186C196.092 98.2093 192.037 112.951 192.037 112.951C191.583 113.309 185.423 116.437 183.443 117.223C183.089 117.357 182.699 117.357 182.345 117.223C181.396 116.878 180.746 116.941 179.816 116.851C179.085 116.778 178.717 116.519 178.622 116.673C178.535 116.865 178.524 117.082 178.59 117.282C178.657 117.481 178.796 117.648 178.98 117.749C179.381 117.983 179.808 118.169 180.252 118.303C179.456 118.545 178.627 118.657 177.795 118.635C175.889 118.594 175.203 119.42 176.683 121.359C177.591 122.566 179.094 122.948 182.449 121.79C183.411 121.454 184.719 120.805 185.94 120.364C188.455 119.456 189.118 119.348 191.034 118.698C193.826 117.754 195.769 116.819 196.36 115.702Z" fill="#FFA8A7"/>
<path d="M196.582 97.6372C197.739 97.7961 198.852 98.0549 199.537 98.9992C200.223 99.9435 200.772 101.269 200.1 104.879C199.586 107.417 198.897 109.917 198.039 112.36C198.039 112.36 195.342 113.514 192.478 110.59L194.448 102.972C194.448 102.972 194.766 98.0186 196.582 97.6372Z" fill="#455A64"/>
</svg>
